<?xml version="1.0" standalone="no"?>
<!DOCTYPE svg PUBLIC "-//W3C//DTD SVG 20010904//EN"
 "http://www.w3.org/TR/2001/REC-SVG-20010904/DTD/svg10.dtd">
<svg version="1.0" xmlns="http://www.w3.org/2000/svg"
 width="359.000000pt" height="83.000000pt" viewBox="0 0 359.000000 83.000000"
 preserveAspectRatio="xMidYMid meet">

<g transform="translate(0.000000,83.000000) scale(0.100000,-0.100000)"
fill="#000000" stroke="none">
<path fill="#2661f6" d="M340 823 c-28 -10 -49 -35 -55 -64 -13 -57 -126 -125 -190 -113 -77
14 -112 -55 -60 -118 22 -26 25 -39 25 -108 0 -70 -3 -82 -27 -110 -33 -40
-35 -86 -4 -111 17 -14 33 -16 76 -12 49 5 59 3 104 -26 39 -26 53 -42 71 -86
41 -100 120 -100 161 1 18 46 30 60 73 85 44 26 58 29 102 25 60 -5 88 9 98
50 13 52 -48 99 -95 74 -11 -6 -29 -31 -39 -55 -13 -30 -32 -53 -62 -72 -41
-26 -50 -27 -158 -27 -109 0 -117 1 -158 27 -27 18 -49 42 -59 64 -8 20 -26
52 -40 70 -23 30 -25 40 -22 112 3 58 9 84 22 99 10 11 28 39 40 62 17 32 36
50 77 72 48 25 62 28 110 23 47 -5 58 -3 78 15 55 51 1 148 -68 123z"/>
<path fill="#2661f6" d="M617 639 c-10 -6 -24 -27 -33 -48 -24 -60 -62 -76 -174 -74 -106 3
-121 -3 -144 -59 -19 -44 -6 -101 28 -124 70 -45 143 -18 170 63 10 30 32 65
57 89 35 34 46 39 92 41 29 0 58 2 64 2 7 1 19 13 27 29 29 57 -31 114 -87 81z"/>
<path d="M1029 593 c-41 -7 -104 -66 -117 -111 -35 -115 19 -219 124 -243 45
-10 60 -9 105 5 66 22 83 42 61 72 l-17 21 -37 -25 c-81 -53 -183 4 -183 103
0 95 100 155 178 106 42 -26 41 -26 60 3 15 22 14 24 -15 46 -30 22 -103 33
-159 23z"/>
<path d="M1431 589 c-85 -26 -123 -79 -123 -174 -1 -94 33 -142 120 -170 148
-49 277 72 240 225 -5 20 -28 62 -43 76 -40 40 -134 61 -194 43z m135 -82 c30
-27 36 -41 39 -78 4 -57 -16 -98 -56 -121 -107 -62 -221 58 -161 170 21 40 55
60 105 61 29 1 45 -6 73 -32z"/>
<path d="M1747 593 c-4 -3 -7 -17 -7 -30 0 -22 4 -23 60 -23 l60 0 0 -156 0
-155 33 3 32 3 3 153 3 154 52 -4 52 -3 -3 33 -4 32 -137 0 c-76 0 -141 -3
-144 -7z"/>
<path d="M2117 593 c-4 -3 -7 -17 -7 -30 0 -22 4 -23 60 -23 l60 0 0 -156 0
-155 33 3 32 3 3 153 3 154 52 -4 52 -3 -3 33 -4 32 -137 0 c-76 0 -141 -3
-144 -7z"/>
<path d="M2960 572 c-101 -60 -120 -209 -38 -289 41 -40 69 -50 134 -50 37 -1
65 7 100 26 l49 26 3 73 3 72 -81 0 c-79 0 -80 0 -80 -25 0 -23 4 -25 45 -25
45 0 45 0 45 -35 0 -29 -5 -37 -27 -46 -44 -17 -111 -6 -140 23 -48 48 -45
135 6 186 39 39 134 37 163 -2 9 -13 47 34 41 50 -6 17 -104 45 -147 42 -20
-1 -55 -13 -76 -26z"/>
<path d="M3330 415 l0 -185 130 0 130 0 0 30 0 30 -100 0 -100 0 0 45 0 45 84
0 84 0 4 33 3 32 -87 -3 -88 -3 0 50 0 51 100 0 100 0 0 30 0 30 -130 0 -130
0 0 -185z"/>
<path d="M2576 565 c-4 -15 -20 -54 -36 -88 -15 -34 -40 -91 -55 -127 -15 -36
-31 -69 -36 -75 -5 -5 -9 -17 -9 -28 0 -15 6 -18 32 -15 25 2 33 9 41 33 17
53 24 56 111 53 l81 -3 19 -42 c16 -35 24 -43 46 -43 36 0 41 7 25 38 -8 15
-24 50 -35 77 -12 28 -28 64 -35 80 -8 17 -23 53 -35 80 -33 78 -35 80 -72 83
-31 3 -36 0 -42 -23z m60 -80 c3 -14 15 -42 25 -63 l20 -37 -31 -3 c-16 -2
-43 -2 -59 0 l-29 3 26 63 c28 67 38 76 48 37z"/>
</g>
</svg>
